<svg width="141" height="3" viewBox="0 0 141 3" fill="none" xmlns="http://www.w3.org/2000/svg">
<path d="M140.921 1.35181C140.921 0.843077 140.509 0.430671 140 0.430671C139.491 0.430671 139.079 0.843077 139.079 1.35181C139.079 1.86054 139.491 2.27294 140 2.27294C140.509 2.27294 140.921 1.86054 140.921 1.35181ZM2.05986 1.35181C2.05986 0.843077 1.64746 0.430671 1.13873 0.430671C0.630005 0.430671 0.21759 0.843077 0.21759 1.35181C0.21759 1.86054 0.630005 2.27294 1.13873 2.27294C1.64746 2.27294 2.05986 1.86054 2.05986 1.35181ZM140 1.17909H139.656V1.52452H140V1.17909ZM138.969 1.17909H138.281V1.52452H138.969V1.17909ZM137.594 1.17909L136.907 1.17909V1.52452L137.594 1.52452V1.17909ZM136.219 1.17909H135.532V1.52452H136.219V1.17909ZM134.844 1.17909H134.157V1.52452H134.844V1.17909ZM133.469 1.17909H132.782V1.52452H133.469V1.17909ZM132.095 1.17909L131.407 1.17909V1.52452L132.095 1.52452V1.17909ZM130.72 1.17909L130.032 1.17909V1.52452L130.72 1.52452V1.17909ZM129.345 1.17909H128.657V1.52452H129.345V1.17909ZM127.97 1.17909H127.283V1.52452H127.97V1.17909ZM126.595 1.17909L125.908 1.17909V1.52452L126.595 1.52452V1.17909ZM125.22 1.17909H124.533V1.52452H125.22V1.17909ZM123.845 1.17909H123.158V1.52452H123.845V1.17909ZM122.47 1.17909H121.783V1.52452H122.47V1.17909ZM121.096 1.17909L120.408 1.17909V1.52452L121.096 1.52452V1.17909ZM119.721 1.17909L119.033 1.17909V1.52452L119.721 1.52452V1.17909ZM118.346 1.17909H117.658V1.52452H118.346V1.17909ZM116.971 1.17909H116.284V1.52452H116.971V1.17909ZM115.596 1.17909H114.909V1.52452H115.596V1.17909ZM114.221 1.17909L113.534 1.17909V1.52452L114.221 1.52452V1.17909ZM112.846 1.17909H112.159V1.52452H112.846V1.17909ZM111.472 1.17909H110.784V1.52452H111.472V1.17909ZM110.097 1.17909L109.409 1.17909V1.52452L110.097 1.52452V1.17909ZM108.722 1.17909L108.034 1.17909V1.52452L108.722 1.52452V1.17909ZM107.347 1.17909H106.66V1.52452H107.347V1.17909ZM105.972 1.17909H105.285V1.52452H105.972V1.17909ZM104.597 1.17909H103.91V1.52452H104.597V1.17909ZM103.222 1.17909L102.535 1.17909V1.52452L103.222 1.52452V1.17909ZM101.848 1.17909H101.16V1.52452H101.848V1.17909ZM100.473 1.17909H99.7852V1.52452H100.473V1.17909ZM99.0978 1.17909L98.4104 1.17909V1.52452L99.0978 1.52452V1.17909ZM97.723 1.17909L97.0355 1.17909V1.52452L97.723 1.52452V1.17909ZM96.3481 1.17909H95.6607V1.52452H96.3481V1.17909ZM94.9732 1.17909H94.2858V1.52452H94.9732V1.17909ZM93.5984 1.17909H92.9109V1.52452H93.5984V1.17909ZM92.2235 1.17909L91.5361 1.17909V1.52452L92.2235 1.52452V1.17909ZM90.8486 1.17909L90.1612 1.17909V1.52452L90.8486 1.52452V1.17909ZM89.4738 1.17909H88.7863V1.52452H89.4738V1.17909ZM88.0989 1.17909H87.4115V1.52452H88.0989V1.17909ZM86.7241 1.17909L86.0366 1.17909V1.52452L86.7241 1.52452V1.17909ZM85.3492 1.17909H84.6618V1.52452H85.3492V1.17909ZM83.9743 1.17909H83.2869V1.52452H83.9743V1.17909ZM82.5995 1.17909H81.912V1.52452H82.5995V1.17909ZM81.2246 1.17909L80.5372 1.17909V1.52452L81.2246 1.52452V1.17909ZM79.8497 1.17909L79.1623 1.17909V1.52452L79.8497 1.52452V1.17909ZM78.4749 1.17909H77.7874V1.52452H78.4749V1.17909ZM77.1 1.17909H76.4126V1.52452H77.1V1.17909ZM75.7252 1.17909H75.0377V1.52452H75.7252V1.17909ZM74.3503 1.17909L73.6629 1.17909V1.52452L74.3503 1.52452V1.17909ZM72.9754 1.17909H72.288V1.52452H72.9754V1.17909ZM71.6006 1.17909H70.9131V1.52452H71.6006V1.17909ZM70.2257 1.17909L69.5383 1.17909V1.52452L70.2257 1.52452V1.17909ZM68.8508 1.17909L68.1634 1.17909V1.52452L68.8508 1.52452V1.17909ZM67.476 1.17909H66.7885V1.52452H67.476V1.17909ZM66.1011 1.17909H65.4137V1.52452H66.1011V1.17909ZM64.7262 1.17909H64.0388V1.52452H64.7262V1.17909ZM63.3514 1.17909L62.6639 1.17909V1.52452L63.3514 1.52452V1.17909ZM61.9765 1.17909H61.2891V1.52452H61.9765V1.17909ZM60.6017 1.17909H59.9142V1.52452H60.6017V1.17909ZM59.2268 1.17909L58.5394 1.17909V1.52452L59.2268 1.52452V1.17909ZM57.8519 1.17909L57.1645 1.17909V1.52452L57.8519 1.52452V1.17909ZM56.4771 1.17909H55.7896V1.52452H56.4771V1.17909ZM55.1022 1.17909H54.4148V1.52452H55.1022V1.17909ZM53.7273 1.17909H53.0399V1.52452H53.7273V1.17909ZM52.3525 1.17909L51.6651 1.17909V1.52452L52.3525 1.52452V1.17909ZM50.9776 1.17909L50.2902 1.17909V1.52452L50.9776 1.52452V1.17909ZM49.6028 1.17909H48.9153V1.52452H49.6028V1.17909ZM48.2279 1.17909H47.5405V1.52452H48.2279V1.17909ZM46.853 1.17909L46.1656 1.17909V1.52452L46.853 1.52452V1.17909ZM45.4782 1.17909H44.7907V1.52452H45.4782V1.17909ZM44.1033 1.17909H43.4159V1.52452H44.1033V1.17909ZM42.7284 1.17909H42.041V1.52452H42.7284V1.17909ZM41.3536 1.17909L40.6662 1.17909V1.52452L41.3536 1.52452V1.17909ZM39.9787 1.17909L39.2913 1.17909V1.52452L39.9787 1.52452V1.17909ZM38.6039 1.17909H37.9164V1.52452H38.6039V1.17909ZM37.229 1.17909H36.5416V1.52452H37.229V1.17909ZM35.8541 1.17909H35.1667V1.52452H35.8541V1.17909ZM34.4793 1.17909L33.7918 1.17909V1.52452L34.4793 1.52452V1.17909ZM33.1044 1.17909H32.417V1.52452H33.1044V1.17909ZM31.7295 1.17909H31.0421V1.52452H31.7295V1.17909ZM30.3547 1.17909L29.6673 1.17909V1.52452L30.3547 1.52452V1.17909ZM28.9798 1.17909L28.2924 1.17909V1.52452L28.9798 1.52452V1.17909ZM27.605 1.17909H26.9175V1.52452H27.605V1.17909ZM26.2301 1.17909H25.5427V1.52452H26.2301V1.17909ZM24.8552 1.17909H24.1678V1.52452H24.8552V1.17909ZM23.4804 1.17909L22.7929 1.17909V1.52452L23.4804 1.52452V1.17909ZM22.1055 1.17909H21.4181V1.52452H22.1055V1.17909ZM20.7306 1.17909H20.0432V1.52452H20.7306V1.17909ZM19.3558 1.17909L18.6684 1.17909V1.52452L19.3558 1.52452V1.17909ZM17.9809 1.17909L17.2935 1.17909V1.52452L17.9809 1.52452V1.17909ZM16.6061 1.17909H15.9186V1.52452H16.6061V1.17909ZM15.2312 1.17909H14.5438V1.52452H15.2312V1.17909ZM13.8563 1.17909H13.1689V1.52452H13.8563V1.17909ZM12.4815 1.17909L11.794 1.17909V1.52452L12.4815 1.52452V1.17909ZM11.1066 1.17909L10.4192 1.17909V1.52452L11.1066 1.52452V1.17909ZM9.73172 1.17909H9.04428V1.52452H9.73172V1.17909ZM8.35684 1.17909H7.6694V1.52452H8.35684V1.17909ZM6.98196 1.17909L6.29453 1.17909V1.52452L6.98196 1.52452V1.17909ZM5.60709 1.17909H4.91965V1.52452H5.60709V1.17909ZM4.23221 1.17909H3.54477V1.52452H4.23221V1.17909ZM2.85733 1.17909H2.16989V1.52452H2.85733V1.17909ZM1.48245 1.17909L1.13873 1.17909V1.52452L1.48245 1.52452V1.17909Z" fill="#555555"/>
</svg>
