<svg width="19" height="16" viewBox="0 0 19 16" fill="none" xmlns="http://www.w3.org/2000/svg">
<path d="M18.92 1.82435C18.2242 2.13264 17.4768 2.34095 16.691 2.4351C17.5018 1.94999 18.1084 1.18649 18.3975 0.287059C17.6358 0.739489 16.8021 1.05795 15.9328 1.2286C15.3481 0.604404 14.5738 0.190678 13.7299 0.0516533C12.886 -0.0873712 12.0199 0.0560839 11.2659 0.459746C10.5119 0.863409 9.91227 1.50469 9.56012 2.28404C9.20797 3.06338 9.12298 3.93718 9.31835 4.76978C7.77489 4.69229 6.26497 4.29114 4.88659 3.59236C3.50821 2.89359 2.29217 1.9128 1.31738 0.713668C0.98408 1.28859 0.79243 1.95516 0.79243 2.66507C0.792058 3.30414 0.949444 3.93343 1.25062 4.49709C1.5518 5.06076 1.98746 5.54137 2.51894 5.89629C1.90256 5.87668 1.29978 5.71014 0.760766 5.41052V5.46052C0.760704 6.35685 1.07077 7.22559 1.63834 7.91934C2.20592 8.6131 2.99605 9.08913 3.87466 9.26666C3.30286 9.42141 2.70338 9.4442 2.12148 9.33332C2.36937 10.1046 2.85225 10.779 3.5025 11.2622C4.15275 11.7453 4.93783 12.0131 5.74783 12.028C4.37281 13.1073 2.67467 13.6928 0.926585 13.6902C0.61693 13.6903 0.307536 13.6722 0 13.6361C1.77441 14.7769 3.83995 15.3823 5.94948 15.38C13.0905 15.38 16.9943 9.4658 16.9943 4.3365C16.9943 4.16986 16.9902 4.00155 16.9827 3.83491C17.742 3.28579 18.3975 2.60582 18.9183 1.82685L18.92 1.82435Z" fill="#292D3D"/>
</svg>
