<svg width="32" height="32" viewBox="0 0 32 32" fill="none" xmlns="http://www.w3.org/2000/svg">
<circle cx="15.5278" cy="15.5277" r="15.5278" fill="#810606"/>
<path d="M7.47567 18.6458H5.90118L8.30025 11.6963H10.1937L12.5894 18.6458H11.0149L9.27413 13.2843H9.21983L7.47567 18.6458ZM7.37727 15.9141H11.0963V17.0611H7.37727V15.9141ZM13.6212 18.6458V11.6963H16.363C16.89 11.6963 17.3391 11.7969 17.7101 11.9983C18.0811 12.1973 18.3639 12.4745 18.5584 12.8296C18.7552 13.1825 18.8536 13.5897 18.8536 14.0512C18.8536 14.5127 18.7541 14.9199 18.555 15.2728C18.356 15.6257 18.0675 15.9006 17.6897 16.0974C17.3142 16.2942 16.8595 16.3926 16.3256 16.3926H14.5781V15.2151H16.0881C16.3709 15.2151 16.6039 15.1665 16.7871 15.0692C16.9726 14.9697 17.1106 14.8328 17.2011 14.6586C17.2938 14.4822 17.3402 14.2797 17.3402 14.0512C17.3402 13.8205 17.2938 13.6191 17.2011 13.4472C17.1106 13.273 16.9726 13.1384 16.7871 13.0434C16.6016 12.9461 16.3663 12.8975 16.0813 12.8975H15.0905V18.6458H13.6212ZM20.0033 18.6458V11.6963H22.7451C23.2722 11.6963 23.7213 11.7969 24.0923 11.9983C24.4633 12.1973 24.746 12.4745 24.9406 12.8296C25.1374 13.1825 25.2358 13.5897 25.2358 14.0512C25.2358 14.5127 25.1363 14.9199 24.9372 15.2728C24.7381 15.6257 24.4497 15.9006 24.0719 16.0974C23.6964 16.2942 23.2417 16.3926 22.7078 16.3926H20.9602V15.2151H22.4703C22.753 15.2151 22.986 15.1665 23.1693 15.0692C23.3548 14.9697 23.4928 14.8328 23.5833 14.6586C23.676 14.4822 23.7224 14.2797 23.7224 14.0512C23.7224 13.8205 23.676 13.6191 23.5833 13.4472C23.4928 13.273 23.3548 13.1384 23.1693 13.0434C22.9838 12.9461 22.7485 12.8975 22.4635 12.8975H21.4726V18.6458H20.0033Z" fill="white"/>
</svg>
