<svg width="32" height="32" viewBox="0 0 32 32" fill="none" xmlns="http://www.w3.org/2000/svg">
<circle cx="15.5278" cy="15.5278" r="15.5278" fill="#810606"/>
<path d="M12.3824 19.646V18.261L15.6185 15.2647C15.8937 14.9983 16.1245 14.7586 16.3109 14.5455C16.5003 14.3325 16.6439 14.1238 16.7415 13.9196C16.8392 13.7125 16.888 13.489 16.888 13.2493C16.888 12.983 16.8274 12.7536 16.706 12.5613C16.5847 12.366 16.419 12.2165 16.2088 12.1129C15.9987 12.0064 15.7605 11.9531 15.4942 11.9531C15.216 11.9531 14.9733 12.0094 14.7662 12.1218C14.559 12.2343 14.3992 12.3956 14.2867 12.6057C14.1743 12.8158 14.1181 13.0659 14.1181 13.3559H12.2936C12.2936 12.761 12.4283 12.2446 12.6976 11.8066C12.9669 11.3687 13.3442 11.0298 13.8295 10.7901C14.3149 10.5504 14.8742 10.4305 15.5075 10.4305C16.1585 10.4305 16.7253 10.546 17.2076 10.7768C17.693 11.0047 18.0703 11.3213 18.3396 11.7267C18.6089 12.1322 18.7435 12.5968 18.7435 13.1206C18.7435 13.4639 18.6755 13.8027 18.5393 14.1371C18.4062 14.4716 18.1679 14.843 17.8247 15.2513C17.4814 15.6568 16.9975 16.1436 16.3731 16.7118L15.0458 18.0124V18.0746H18.8634V19.646H12.3824Z" fill="white"/>
</svg>
