<svg width="32" height="32" viewBox="0 0 32 32" fill="none" xmlns="http://www.w3.org/2000/svg">
<circle cx="15.5278" cy="15.5278" r="15.5278" fill="#810606"/>
<path d="M15.4449 19.7703C14.782 19.7703 14.1916 19.6564 13.6737 19.4285C13.1588 19.1977 12.7519 18.881 12.453 18.4785C12.157 18.0731 12.0046 17.6055 11.9958 17.0758H13.9312C13.943 17.2977 14.0155 17.4931 14.1487 17.6617C14.2848 17.8275 14.4653 17.9562 14.6903 18.0479C14.9152 18.1397 15.1682 18.1856 15.4493 18.1856C15.7423 18.1856 16.0013 18.1338 16.2262 18.0302C16.4511 17.9266 16.6272 17.7831 16.7544 17.5996C16.8817 17.4161 16.9453 17.2045 16.9453 16.9648C16.9453 16.7221 16.8772 16.5076 16.7411 16.3212C16.6079 16.1318 16.4156 15.9838 16.164 15.8772C15.9154 15.7707 15.6195 15.7174 15.2762 15.7174H14.4284V14.3058H15.2762C15.5662 14.3058 15.8222 14.2555 16.0442 14.1549C16.2691 14.0543 16.4437 13.9152 16.568 13.7376C16.6923 13.5571 16.7544 13.347 16.7544 13.1073C16.7544 12.8794 16.6997 12.6797 16.5902 12.508C16.4836 12.3334 16.3327 12.1973 16.1374 12.0996C15.945 12.002 15.7201 11.9531 15.4627 11.9531C15.2022 11.9531 14.964 12.0005 14.748 12.0952C14.5319 12.1869 14.3588 12.3186 14.2286 12.4903C14.0984 12.6619 14.0288 12.8631 14.02 13.094H12.1778C12.1866 12.5702 12.3361 12.1085 12.6261 11.709C12.9161 11.3095 13.3068 10.9973 13.798 10.7723C14.2922 10.5445 14.8501 10.4305 15.4715 10.4305C16.0989 10.4305 16.6479 10.5445 17.1184 10.7723C17.589 11.0002 17.9544 11.308 18.2149 11.6957C18.4782 12.0804 18.6085 12.5125 18.6055 12.9919C18.6085 13.5009 18.4501 13.9255 18.1305 14.2659C17.8139 14.6062 17.401 14.8222 16.892 14.914V14.985C17.5608 15.0708 18.0698 15.3031 18.4191 15.6819C18.7712 16.0578 18.9458 16.5283 18.9429 17.0935C18.9458 17.6114 18.7964 18.0716 18.4945 18.4741C18.1956 18.8766 17.7828 19.1932 17.256 19.424C16.7293 19.6549 16.1255 19.7703 15.4449 19.7703Z" fill="white"/>
</svg>
