<svg width="32" height="32" viewBox="0 0 32 32" fill="none" xmlns="http://www.w3.org/2000/svg">
<circle cx="15.5278" cy="15.5278" r="15.5278" fill="#810606"/>
<path d="M10.5197 11.6963L12.1994 16.9763H12.2638L13.9469 11.6963H15.5757L13.18 18.6458H11.2866L8.88751 11.6963H10.5197ZM16.6075 18.6458V11.6963H19.3493C19.8741 11.6963 20.322 11.7902 20.693 11.9779C21.0663 12.1634 21.3502 12.427 21.5447 12.7686C21.7416 13.1079 21.84 13.5072 21.84 13.9664C21.84 14.4279 21.7404 14.8249 21.5414 15.1575C21.3423 15.4878 21.0539 15.7411 20.6761 15.9176C20.3005 16.094 19.8458 16.1823 19.312 16.1823H17.4762V15.0014H19.0744C19.3549 15.0014 19.5879 14.9629 19.7734 14.886C19.9589 14.8091 20.0969 14.6937 20.1874 14.5399C20.2802 14.3861 20.3266 14.1949 20.3266 13.9664C20.3266 13.7357 20.2802 13.5411 20.1874 13.3828C20.0969 13.2244 19.9578 13.1045 19.77 13.0231C19.5845 12.9394 19.3504 12.8975 19.0676 12.8975H18.0768V18.6458H16.6075ZM20.3605 15.4832L22.0877 18.6458H20.4657L18.7758 15.4832H20.3605Z" fill="white"/>
</svg>
